<svg xmlns="http://www.w3.org/2000/svg" xmlns:xlink="http://www.w3.org/1999/xlink" width="179" height="64.93" viewBox="0 0 179 64.93">
  <defs>
    <clipPath id="clip-path">
      <rect id="Rechteck_291" data-name="Rechteck 291" width="179" height="64.93" fill="none"/>
    </clipPath>
  </defs>
  <g id="Gruppe_322" data-name="Gruppe 322" clip-path="url(#clip-path)">
    <path id="Pfad_405" data-name="Pfad 405" d="M42.831,64.794H14.941A8.441,8.441,0,0,1,6.5,56.354V12a8.441,8.441,0,0,1,8.441-8.441h27.89Z" transform="translate(-3.847 -2.109)" fill="blue"/>
    <path id="Pfad_406" data-name="Pfad 406" d="M48.049,27.284l-.477,1.469.734.239" transform="translate(-28.152 -16.146)" fill="#fc0"/>
    <path id="Pfad_407" data-name="Pfad 407" d="M48.368,27.284l.477,1.469-.734.239" transform="translate(-28.471 -16.146)" fill="#fc0"/>
    <path id="Pfad_408" data-name="Pfad 408" d="M50.153,29.315H48.5v.551" transform="translate(-28.702 -17.349)" fill="#fc0"/>
    <path id="Pfad_409" data-name="Pfad 409" d="M49.87,29.9l-1.25.908-.454-.625" transform="translate(-28.504 -17.694)" fill="#fc0"/>
    <path id="Pfad_410" data-name="Pfad 410" d="M49.208,32l-.477-1.469L48,30.769" transform="translate(-28.404 -18.068)" fill="#fc0"/>
    <path id="Pfad_411" data-name="Pfad 411" d="M49.153,31.907,47.9,31l.454-.625" transform="translate(-28.349 -17.975)" fill="#fc0"/>
    <path id="Pfad_412" data-name="Pfad 412" d="M46.516,31.907,47.766,31l-.454-.625" transform="translate(-27.528 -17.975)" fill="#fc0"/>
    <path id="Pfad_413" data-name="Pfad 413" d="M46.516,32l.477-1.469.735.239" transform="translate(-27.528 -18.068)" fill="#fc0"/>
    <path id="Pfad_414" data-name="Pfad 414" d="M45.141,29.9l1.25.908.454-.625" transform="translate(-26.714 -17.694)" fill="#fc0"/>
    <path id="Pfad_415" data-name="Pfad 415" d="M44.45,29.315H46.1v.551" transform="translate(-26.305 -17.349)" fill="#fc0"/>
    <path id="Pfad_416" data-name="Pfad 416" d="M59.4,30.326l-.477,1.469.734.239" transform="translate(-34.871 -17.946)" fill="#fc0"/>
    <path id="Pfad_417" data-name="Pfad 417" d="M59.721,30.326l.477,1.469-.734.239" transform="translate(-35.19 -17.946)" fill="#fc0"/>
    <path id="Pfad_418" data-name="Pfad 418" d="M60.953,33.365H59.3v.551" transform="translate(-35.093 -19.745)" fill="#fc0"/>
    <path id="Pfad_419" data-name="Pfad 419" d="M61.222,32.94l-1.25.908-.454-.625" transform="translate(-35.223 -19.494)" fill="#fc0"/>
    <path id="Pfad_420" data-name="Pfad 420" d="M60.561,35.042l-.477-1.469-.735.239" transform="translate(-35.122 -19.868)" fill="#fc0"/>
    <path id="Pfad_421" data-name="Pfad 421" d="M60.506,34.949l-1.25-.908.454-.625" transform="translate(-35.067 -19.776)" fill="#fc0"/>
    <path id="Pfad_422" data-name="Pfad 422" d="M57.869,34.949l1.25-.908-.454-.625" transform="translate(-34.246 -19.776)" fill="#fc0"/>
    <path id="Pfad_423" data-name="Pfad 423" d="M57.869,35.042l.477-1.469.735.239" transform="translate(-34.246 -19.868)" fill="#fc0"/>
    <path id="Pfad_424" data-name="Pfad 424" d="M56.494,32.94l1.25.908.454-.625" transform="translate(-33.433 -19.494)" fill="#fc0"/>
    <path id="Pfad_425" data-name="Pfad 425" d="M56.6,33.365h1.653v.551" transform="translate(-33.495 -19.745)" fill="#fc0"/>
    <path id="Pfad_426" data-name="Pfad 426" d="M67.713,38.637l-.477,1.469.734.239" transform="translate(-39.789 -22.865)" fill="#fc0"/>
    <path id="Pfad_427" data-name="Pfad 427" d="M68.032,38.637l.477,1.469-.734.239" transform="translate(-40.108 -22.865)" fill="#fc0"/>
    <path id="Pfad_428" data-name="Pfad 428" d="M70.4,41.465H68.75v.551" transform="translate(-40.686 -24.539)" fill="#fc0"/>
    <path id="Pfad_429" data-name="Pfad 429" d="M69.533,41.251l-1.25.908-.454-.625" transform="translate(-40.141 -24.412)" fill="#fc0"/>
    <path id="Pfad_430" data-name="Pfad 430" d="M68.872,43.353l-.477-1.469-.735.239" transform="translate(-40.04 -24.786)" fill="#fc0"/>
    <path id="Pfad_431" data-name="Pfad 431" d="M68.817,43.26l-1.25-.908.454-.625" transform="translate(-39.985 -24.694)" fill="#fc0"/>
    <path id="Pfad_432" data-name="Pfad 432" d="M66.18,43.26l1.25-.908-.454-.625" transform="translate(-39.165 -24.694)" fill="#fc0"/>
    <path id="Pfad_433" data-name="Pfad 433" d="M66.18,43.353l.477-1.469.735.239" transform="translate(-39.165 -24.786)" fill="#fc0"/>
    <path id="Pfad_434" data-name="Pfad 434" d="M64.805,41.251l1.25.908.454-.625" transform="translate(-38.351 -24.412)" fill="#fc0"/>
    <path id="Pfad_435" data-name="Pfad 435" d="M64.7,41.465h1.653v.551" transform="translate(-38.289 -24.539)" fill="#fc0"/>
    <path id="Pfad_436" data-name="Pfad 436" d="M70.755,49.989l-.477,1.469.734.239" transform="translate(-41.59 -29.583)" fill="#fc0"/>
    <path id="Pfad_437" data-name="Pfad 437" d="M71.074,49.989l.477,1.469-.734.239" transform="translate(-41.909 -29.583)" fill="#fc0"/>
    <path id="Pfad_438" data-name="Pfad 438" d="M73.1,52.265H71.45v.551" transform="translate(-42.283 -30.93)" fill="#fc0"/>
    <path id="Pfad_439" data-name="Pfad 439" d="M72.575,52.6l-1.25.908-.454-.625" transform="translate(-41.941 -31.131)" fill="#fc0"/>
    <path id="Pfad_440" data-name="Pfad 440" d="M71.914,54.706l-.477-1.469-.735.239" transform="translate(-41.841 -31.505)" fill="#fc0"/>
    <path id="Pfad_441" data-name="Pfad 441" d="M71.859,54.613l-1.25-.908.454-.625" transform="translate(-41.786 -31.412)" fill="#fc0"/>
    <path id="Pfad_442" data-name="Pfad 442" d="M69.222,54.613l1.25-.908-.454-.625" transform="translate(-40.965 -31.412)" fill="#fc0"/>
    <path id="Pfad_443" data-name="Pfad 443" d="M69.222,54.706l.477-1.469.735.239" transform="translate(-40.965 -31.505)" fill="#fc0"/>
    <path id="Pfad_444" data-name="Pfad 444" d="M67.847,52.6l1.25.908.454-.625" transform="translate(-40.151 -31.131)" fill="#fc0"/>
    <path id="Pfad_445" data-name="Pfad 445" d="M67.4,52.265h1.653v.551" transform="translate(-39.887 -30.93)" fill="#fc0"/>
    <path id="Pfad_446" data-name="Pfad 446" d="M67.713,61.342l-.477,1.469.734.239" transform="translate(-39.789 -36.302)" fill="#fc0"/>
    <path id="Pfad_447" data-name="Pfad 447" d="M68.032,61.342l.477,1.469-.734.239" transform="translate(-40.108 -36.302)" fill="#fc0"/>
    <path id="Pfad_448" data-name="Pfad 448" d="M70.4,64.415H68.75v.551" transform="translate(-40.686 -38.12)" fill="#fc0"/>
    <path id="Pfad_449" data-name="Pfad 449" d="M69.533,63.957l-1.25.908-.454-.625" transform="translate(-40.141 -37.849)" fill="#fc0"/>
    <path id="Pfad_450" data-name="Pfad 450" d="M68.872,66.058l-.477-1.469-.735.239" transform="translate(-40.04 -38.223)" fill="#fc0"/>
    <path id="Pfad_451" data-name="Pfad 451" d="M68.817,65.966l-1.25-.908.454-.625" transform="translate(-39.985 -38.131)" fill="#fc0"/>
    <path id="Pfad_452" data-name="Pfad 452" d="M66.18,65.966l1.25-.908-.454-.625" transform="translate(-39.165 -38.131)" fill="#fc0"/>
    <path id="Pfad_453" data-name="Pfad 453" d="M66.18,66.058l.477-1.469.735.239" transform="translate(-39.165 -38.223)" fill="#fc0"/>
    <path id="Pfad_454" data-name="Pfad 454" d="M64.805,63.957l1.25.908.454-.625" transform="translate(-38.351 -37.849)" fill="#fc0"/>
    <path id="Pfad_455" data-name="Pfad 455" d="M64.7,64.415h1.653v.551" transform="translate(-38.289 -38.12)" fill="#fc0"/>
    <path id="Pfad_456" data-name="Pfad 456" d="M59.4,69.653l-.477,1.469.734.239" transform="translate(-34.871 -41.22)" fill="#fc0"/>
    <path id="Pfad_457" data-name="Pfad 457" d="M59.721,69.653l.477,1.469-.734.239" transform="translate(-35.19 -41.22)" fill="#fc0"/>
    <path id="Pfad_458" data-name="Pfad 458" d="M60.953,72.515H59.3v.551" transform="translate(-35.093 -42.914)" fill="#fc0"/>
    <path id="Pfad_459" data-name="Pfad 459" d="M61.222,72.268l-1.25.908-.454-.625" transform="translate(-35.223 -42.768)" fill="#fc0"/>
    <path id="Pfad_460" data-name="Pfad 460" d="M60.561,74.369,60.084,72.9l-.735.239" transform="translate(-35.122 -43.142)" fill="#fc0"/>
    <path id="Pfad_461" data-name="Pfad 461" d="M60.506,74.277l-1.25-.908.454-.625" transform="translate(-35.067 -43.049)" fill="#fc0"/>
    <path id="Pfad_462" data-name="Pfad 462" d="M57.869,74.277l1.25-.908-.454-.625" transform="translate(-34.246 -43.049)" fill="#fc0"/>
    <path id="Pfad_463" data-name="Pfad 463" d="M57.869,74.369l.477-1.469.735.239" transform="translate(-34.246 -43.142)" fill="#fc0"/>
    <path id="Pfad_464" data-name="Pfad 464" d="M56.494,72.268l1.25.908.454-.625" transform="translate(-33.433 -42.768)" fill="#fc0"/>
    <path id="Pfad_465" data-name="Pfad 465" d="M56.6,72.515h1.653v.551" transform="translate(-33.495 -42.914)" fill="#fc0"/>
    <path id="Pfad_466" data-name="Pfad 466" d="M48.049,72.7l-.477,1.469.734.239" transform="translate(-28.152 -43.02)" fill="#fc0"/>
    <path id="Pfad_467" data-name="Pfad 467" d="M48.368,72.7l.477,1.469-.734.239" transform="translate(-28.471 -43.02)" fill="#fc0"/>
    <path id="Pfad_468" data-name="Pfad 468" d="M50.153,75.215H48.5v.551" transform="translate(-28.702 -44.512)" fill="#fc0"/>
    <path id="Pfad_469" data-name="Pfad 469" d="M49.87,75.31l-1.25.908-.454-.625" transform="translate(-28.504 -44.568)" fill="#fc0"/>
    <path id="Pfad_470" data-name="Pfad 470" d="M49.208,77.411l-.477-1.469L48,76.181" transform="translate(-28.404 -44.942)" fill="#fc0"/>
    <path id="Pfad_471" data-name="Pfad 471" d="M49.153,77.319l-1.25-.908.454-.625" transform="translate(-28.349 -44.85)" fill="#fc0"/>
    <path id="Pfad_472" data-name="Pfad 472" d="M46.516,77.319l1.25-.908-.454-.625" transform="translate(-27.528 -44.85)" fill="#fc0"/>
    <path id="Pfad_473" data-name="Pfad 473" d="M46.516,77.411l.477-1.469.735.239" transform="translate(-27.528 -44.942)" fill="#fc0"/>
    <path id="Pfad_474" data-name="Pfad 474" d="M45.141,75.31l1.25.908.454-.625" transform="translate(-26.714 -44.568)" fill="#fc0"/>
    <path id="Pfad_475" data-name="Pfad 475" d="M44.45,75.215H46.1v.551" transform="translate(-26.305 -44.512)" fill="#fc0"/>
    <path id="Pfad_476" data-name="Pfad 476" d="M36.7,69.653l-.477,1.469.734.239" transform="translate(-21.434 -41.22)" fill="#fc0"/>
    <path id="Pfad_477" data-name="Pfad 477" d="M37.015,69.653l.477,1.469-.734.239" transform="translate(-21.753 -41.22)" fill="#fc0"/>
    <path id="Pfad_478" data-name="Pfad 478" d="M39.353,72.515H37.7v.551" transform="translate(-22.31 -42.914)" fill="#fc0"/>
    <path id="Pfad_479" data-name="Pfad 479" d="M38.517,72.268l-1.25.908-.454-.625" transform="translate(-21.785 -42.768)" fill="#fc0"/>
    <path id="Pfad_480" data-name="Pfad 480" d="M37.855,74.369,37.378,72.9l-.735.239" transform="translate(-21.685 -43.142)" fill="#fc0"/>
    <path id="Pfad_481" data-name="Pfad 481" d="M37.8,74.277l-1.25-.908L37,72.744" transform="translate(-21.63 -43.049)" fill="#fc0"/>
    <path id="Pfad_482" data-name="Pfad 482" d="M35.163,74.277l1.25-.908-.454-.625" transform="translate(-20.809 -43.049)" fill="#fc0"/>
    <path id="Pfad_483" data-name="Pfad 483" d="M35.163,74.369,35.64,72.9l.735.239" transform="translate(-20.809 -43.142)" fill="#fc0"/>
    <path id="Pfad_484" data-name="Pfad 484" d="M33.789,72.268l1.25.908.454-.625" transform="translate(-19.996 -42.768)" fill="#fc0"/>
    <path id="Pfad_485" data-name="Pfad 485" d="M33.65,72.515H35.3v.551" transform="translate(-19.914 -42.914)" fill="#fc0"/>
    <path id="Pfad_486" data-name="Pfad 486" d="M28.385,61.342l-.477,1.469.734.239" transform="translate(-16.516 -36.302)" fill="#fc0"/>
    <path id="Pfad_487" data-name="Pfad 487" d="M28.7,61.342l.477,1.469-.734.239" transform="translate(-16.835 -36.302)" fill="#fc0"/>
    <path id="Pfad_488" data-name="Pfad 488" d="M29.9,64.415H28.25v.551" transform="translate(-16.718 -38.12)" fill="#fc0"/>
    <path id="Pfad_489" data-name="Pfad 489" d="M30.206,63.957l-1.25.908-.454-.625" transform="translate(-16.867 -37.849)" fill="#fc0"/>
    <path id="Pfad_490" data-name="Pfad 490" d="M29.544,66.058l-.477-1.469-.735.239" transform="translate(-16.767 -38.223)" fill="#fc0"/>
    <path id="Pfad_491" data-name="Pfad 491" d="M29.489,65.966l-1.25-.908.454-.625" transform="translate(-16.712 -38.131)" fill="#fc0"/>
    <path id="Pfad_492" data-name="Pfad 492" d="M26.852,65.966l1.25-.908-.454-.625" transform="translate(-15.891 -38.131)" fill="#fc0"/>
    <path id="Pfad_493" data-name="Pfad 493" d="M26.852,66.058l.477-1.469.735.239" transform="translate(-15.891 -38.223)" fill="#fc0"/>
    <path id="Pfad_494" data-name="Pfad 494" d="M25.478,63.957l1.25.908.454-.625" transform="translate(-15.077 -37.849)" fill="#fc0"/>
    <path id="Pfad_495" data-name="Pfad 495" d="M25.55,64.415H27.2v.551" transform="translate(-15.12 -38.12)" fill="#fc0"/>
    <path id="Pfad_496" data-name="Pfad 496" d="M25.343,49.989l-.477,1.469.734.239" transform="translate(-14.715 -29.583)" fill="#fc0"/>
    <path id="Pfad_497" data-name="Pfad 497" d="M25.662,49.989l.477,1.469L25.4,51.7" transform="translate(-15.034 -29.583)" fill="#fc0"/>
    <path id="Pfad_498" data-name="Pfad 498" d="M27.2,52.265H25.55v.551" transform="translate(-15.12 -30.93)" fill="#fc0"/>
    <path id="Pfad_499" data-name="Pfad 499" d="M27.164,52.6l-1.25.908-.454-.625" transform="translate(-15.067 -31.131)" fill="#fc0"/>
    <path id="Pfad_500" data-name="Pfad 500" d="M26.5,54.706l-.477-1.469-.735.239" transform="translate(-14.966 -31.505)" fill="#fc0"/>
    <path id="Pfad_501" data-name="Pfad 501" d="M26.447,54.613l-1.25-.908.454-.625" transform="translate(-14.911 -31.412)" fill="#fc0"/>
    <path id="Pfad_502" data-name="Pfad 502" d="M23.81,54.613l1.25-.908-.454-.625" transform="translate(-14.091 -31.412)" fill="#fc0"/>
    <path id="Pfad_503" data-name="Pfad 503" d="M23.81,54.706l.477-1.469.735.239" transform="translate(-14.091 -31.505)" fill="#fc0"/>
    <path id="Pfad_504" data-name="Pfad 504" d="M22.436,52.6l1.25.908.454-.625" transform="translate(-13.277 -31.131)" fill="#fc0"/>
    <path id="Pfad_505" data-name="Pfad 505" d="M21.5,52.265h1.653v.551" transform="translate(-12.723 -30.93)" fill="#fc0"/>
    <path id="Pfad_506" data-name="Pfad 506" d="M28.385,38.637l-.477,1.469.734.239" transform="translate(-16.516 -22.865)" fill="#fc0"/>
    <path id="Pfad_507" data-name="Pfad 507" d="M28.7,38.637l.477,1.469-.734.239" transform="translate(-16.835 -22.865)" fill="#fc0"/>
    <path id="Pfad_508" data-name="Pfad 508" d="M29.9,41.465H28.25v.551" transform="translate(-16.718 -24.539)" fill="#fc0"/>
    <path id="Pfad_509" data-name="Pfad 509" d="M30.206,41.251l-1.25.908-.454-.625" transform="translate(-16.867 -24.412)" fill="#fc0"/>
    <path id="Pfad_510" data-name="Pfad 510" d="M29.544,43.353l-.477-1.469-.735.239" transform="translate(-16.767 -24.786)" fill="#fc0"/>
    <path id="Pfad_511" data-name="Pfad 511" d="M29.489,43.26l-1.25-.908.454-.625" transform="translate(-16.712 -24.694)" fill="#fc0"/>
    <path id="Pfad_512" data-name="Pfad 512" d="M26.852,43.26l1.25-.908-.454-.625" transform="translate(-15.891 -24.694)" fill="#fc0"/>
    <path id="Pfad_513" data-name="Pfad 513" d="M26.852,43.353l.477-1.469.735.239" transform="translate(-15.891 -24.786)" fill="#fc0"/>
    <path id="Pfad_514" data-name="Pfad 514" d="M25.478,41.251l1.25.908.454-.625" transform="translate(-15.077 -24.412)" fill="#fc0"/>
    <path id="Pfad_515" data-name="Pfad 515" d="M25.55,41.465H27.2v.551" transform="translate(-15.12 -24.539)" fill="#fc0"/>
    <path id="Pfad_516" data-name="Pfad 516" d="M36.7,30.326l-.477,1.469.734.239" transform="translate(-21.434 -17.946)" fill="#fc0"/>
    <path id="Pfad_517" data-name="Pfad 517" d="M37.015,30.326l.477,1.469-.734.239" transform="translate(-21.753 -17.946)" fill="#fc0"/>
    <path id="Pfad_518" data-name="Pfad 518" d="M39.353,33.365H37.7v.551" transform="translate(-22.31 -19.745)" fill="#fc0"/>
    <path id="Pfad_519" data-name="Pfad 519" d="M38.517,32.94l-1.25.908-.454-.625" transform="translate(-21.785 -19.494)" fill="#fc0"/>
    <path id="Pfad_520" data-name="Pfad 520" d="M37.855,35.042l-.477-1.469-.735.239" transform="translate(-21.685 -19.868)" fill="#fc0"/>
    <path id="Pfad_521" data-name="Pfad 521" d="M37.8,34.949l-1.25-.908L37,33.417" transform="translate(-21.63 -19.776)" fill="#fc0"/>
    <path id="Pfad_522" data-name="Pfad 522" d="M35.163,34.949l1.25-.908-.454-.625" transform="translate(-20.809 -19.776)" fill="#fc0"/>
    <path id="Pfad_523" data-name="Pfad 523" d="M35.163,35.042l.477-1.469.735.239" transform="translate(-20.809 -19.868)" fill="#fc0"/>
    <path id="Pfad_524" data-name="Pfad 524" d="M33.789,32.94l1.25.908.454-.625" transform="translate(-19.996 -19.494)" fill="#fc0"/>
    <path id="Pfad_525" data-name="Pfad 525" d="M33.65,33.365H35.3v.551" transform="translate(-19.914 -19.745)" fill="#fc0"/>
    <path id="Pfad_526" data-name="Pfad 526" d="M26.856,119.283a.22.22,0,0,1-.05.137.166.166,0,0,1-.128.055h-.429a.175.175,0,0,1-.156-.1,1.6,1.6,0,0,1-.179-.265q-.128-.256-.191-.256c-.022,0-.038.014-.051.041a1.83,1.83,0,0,1-.635.507,1.987,1.987,0,0,1-.827.165,1.485,1.485,0,0,1-1.156-.485,1.7,1.7,0,0,1-.434-1.193v-4.031a1,1,0,0,1,.32-.763,1.034,1.034,0,0,1,.749-.293h1.934a1.064,1.064,0,0,1,.685.215.78.78,0,0,1,.284.621v.521a.265.265,0,0,1-.05.141.21.21,0,0,1-.142.051h-.7a.173.173,0,0,1-.128-.051.189.189,0,0,1-.051-.141v-.329a.22.22,0,0,0-.064-.142.286.286,0,0,0-.142-.05H24.273q-.4,0-.507.206A.356.356,0,0,0,23.7,114a.911.911,0,0,1-.007.1,1.215,1.215,0,0,0-.007.137v3.574a.553.553,0,0,0,.32.494,1.353,1.353,0,0,0,.636.178,2.017,2.017,0,0,0,.343-.037,1.5,1.5,0,0,0,.384-.128.81.81,0,0,0,.293-.2.428.428,0,0,0,.124-.307v-.927a.222.222,0,0,0-.051-.128.177.177,0,0,0-.137-.05H24.68a.2.2,0,0,1-.137-.064.254.254,0,0,1-.05-.142v-.471a.256.256,0,0,1,.05-.128.263.263,0,0,1,.137-.05h1.983a.17.17,0,0,1,.192.192Z" transform="translate(-13.386 -66.752)" fill="#fff"/>
    <path id="Pfad_527" data-name="Pfad 527" d="M38.724,116.458a10.275,10.275,0,0,1-.064,1.2,3.209,3.209,0,0,1-.279.964,1.537,1.537,0,0,1-.649.686,2.265,2.265,0,0,1-1.142.256,2.232,2.232,0,0,1-1.134-.256,1.563,1.563,0,0,1-.635-.7,2.632,2.632,0,0,1-.27-.941,11.294,11.294,0,0,1-.064-1.207,6.547,6.547,0,0,1,.142-1.312,4.7,4.7,0,0,1,.229-.822,3.188,3.188,0,0,1,.393-.754,1.927,1.927,0,0,1,.576-.558,1.352,1.352,0,0,1,.764-.215,1.479,1.479,0,0,1,.772.2,2.236,2.236,0,0,1,.6.572,3.636,3.636,0,0,1,.393.754,5.119,5.119,0,0,1,.228.822,6.163,6.163,0,0,1,.142,1.312m-1.07.037q0-.38-.037-.773a8.267,8.267,0,0,0-.142-.891,2.076,2.076,0,0,0-.329-.763.661.661,0,0,0-.557-.32.646.646,0,0,0-.549.32,2.307,2.307,0,0,0-.32.749,5.048,5.048,0,0,0-.123.891q-.042.421-.042.786,0,.242.007.438c0,.131.011.253.02.366a2.462,2.462,0,0,0,.128.594.963.963,0,0,0,.316.434.913.913,0,0,0,.563.165.991.991,0,0,0,.585-.165,1.056,1.056,0,0,0,.329-.458,3.045,3.045,0,0,0,.128-.6q.023-.356.023-.776" transform="translate(-20.409 -66.752)" fill="#fff"/>
    <path id="Pfad_528" data-name="Pfad 528" d="M50.592,113.684a.14.14,0,0,1-.05.114.186.186,0,0,1-.142.064H49.13c-.128,0-.192.059-.192.178v5.243a.169.169,0,0,1-.05.137.164.164,0,0,1-.127.055h-.7a.168.168,0,0,1-.188-.192V114.04a.151.151,0,0,0-.064-.123.192.192,0,0,0-.141-.055h-1.12a.168.168,0,0,1-.192-.187v-.7q0-.178.192-.178h3.844a.2.2,0,0,1,.2.178Z" transform="translate(-27.432 -66.752)" fill="#fff"/>
    <path id="Pfad_529" data-name="Pfad 529" d="M62.461,119.27a.248.248,0,0,1-.051.142.2.2,0,0,1-.142.064h-.685a.205.205,0,0,1-.142-.064.183.183,0,0,1-.05-.128V116.55a.237.237,0,0,0-.05-.142.174.174,0,0,0-.129-.05H59.485c-.128,0-.192.059-.192.178v2.76a.169.169,0,0,1-.05.124.183.183,0,0,1-.142.055h-.686a.166.166,0,0,1-.137-.055.226.226,0,0,1-.055-.124V113a.237.237,0,0,1,.055-.137.137.137,0,0,1,.124-.064h.713a.165.165,0,0,1,.128.05.174.174,0,0,1,.05.128v2.112a.262.262,0,0,0,.05.137.207.207,0,0,0,.142.064H61.2a.278.278,0,0,0,.137-.05.206.206,0,0,0,.05-.127v-2.135a.173.173,0,0,1,.05-.128.191.191,0,0,1,.142-.05h.685a.181.181,0,0,1,.142.05.218.218,0,0,1,.051.128Z" transform="translate(-34.456 -66.753)" fill="#fff"/>
    <path id="Pfad_530" data-name="Pfad 530" d="M74.313,119.041a.592.592,0,0,1,.023.142.263.263,0,0,1-.3.292H73.55c-.158,0-.244-.051-.256-.155l-.178-.992c-.036-.129-.1-.192-.2-.192h-1.49a.152.152,0,0,0-.114.041.353.353,0,0,0-.064.151l-.192.992a.134.134,0,0,1-.073.114.307.307,0,0,1-.142.041h-.457a.279.279,0,0,1-.164-.064.244.244,0,0,1-.091-.228.626.626,0,0,1,.027-.142l1.106-5.878a.428.428,0,0,1,.178-.278.466.466,0,0,1,.256-.087H72.76a.518.518,0,0,1,.242.05.349.349,0,0,1,.142.215Zm-1.439-2.011L72.33,114c-.027-.095-.075-.142-.142-.142s-.118.047-.141.142l-.558,3.026v.041a.166.166,0,0,0,.05.123.157.157,0,0,0,.128.055h1.019c.125,0,.187-.073.187-.22" transform="translate(-41.5 -66.752)" fill="#fff"/>
    <path id="Pfad_531" data-name="Pfad 531" d="M140.092,52.263c-1.282,2.3-3.287,4.2-3.194,3.325s3.194-3.325,3.194-3.325" transform="translate(-81.013 -30.929)" fill="#b51010"/>
    <path id="Pfad_532" data-name="Pfad 532" d="M249.928,43.094s-18.905.371-22.7-.182a4.3,4.3,0,0,1-3.414-2.451,1.973,1.973,0,0,1,1.132-2.728c2.325-.8,7.04-1.649,13.937.75,10.186,3.543,11.041,4.611,11.041,4.611" transform="translate(-132.335 -21.842)" fill="#b51010"/>
    <path id="Pfad_533" data-name="Pfad 533" d="M377.192,53.722a.944.944,0,0,0-.11,1.636c1.053.944,7.5,5.64,7.427,4.618s-2.092-2.963-3.729-4-3.676-2.292-3.676-2.292" transform="translate(-222.892 -31.771)" fill="#b51010"/>
    <path id="Pfad_534" data-name="Pfad 534" d="M207.388,30.854c-15.248.372-19.153,5.486-19.153,5.486s.3-.09.835-.243l-.624,2.244s.662.785,1.071-1.145c.174-.822,1.036-1.386,1.967-1.762,4.6-1.22,13.168-3.254,19.585-3.384,9.2-.186,20.469,6.291,20.469,6.291s-8.9-7.858-24.15-7.486" transform="translate(-111.396 -18.252)"/>
    <path id="Pfad_535" data-name="Pfad 535" d="M254.736,54.543c6.229.093,8.4,0,8.4,0s-5.292-.023-11.314-.091c1.067.046,2.055.078,2.912.091" transform="translate(-149.027 -32.224)"/>
    <path id="Pfad_536" data-name="Pfad 536" d="M204.428,46.517l0-.076a4.449,4.449,0,0,0-.593-1.782.153.153,0,0,0-.289.068c-.008.588-.031,1.506-.09,2.205-.046.544-1.86.558-3.706.429a.153.153,0,0,0-.034.3c1.448.216,3.251.431,5.323.569,2.817.188,9.724.3,15.87.374-5.457-.235-12.979-.83-15.564-1.041a1,1,0,0,1-.92-1.049" transform="translate(-118.115 -26.379)"/>
    <path id="Pfad_537" data-name="Pfad 537" d="M238.4,41.818a.245.245,0,0,0-.029-.067.447.447,0,0,0-.083-.1c-2.261-6.266-10.127-8.684-16.092-9.842a66.042,66.042,0,0,0-12-1.034h0q-.367,0-.734.011a26.011,26.011,0,0,1-13.419-4.13C189.018,22.088,178.7,22.05,178.7,22.05c-2.8-.169-5.619-.19-8.424-.129A43.2,43.2,0,0,0,159.518,23.3a5.741,5.741,0,0,0-2.077,1.074,33.586,33.586,0,0,1-7.528,3.184l-.8.249-.8.255c-4.841,1.491-9.957,2.212-14.54,4.494a7.81,7.81,0,0,0-1.653,1.066l-.024.076c-.2.639-.348,1.305-.565,1.942a9.576,9.576,0,0,1-.844,1.814c-.5.877-1.14,1.67-1.666,2.539-1.054,1.678-.863,3.342-.3,5.135a18.454,18.454,0,0,0,1.673,3.687l.063-.022c-.248-1.585-.727-3.145-.989-4.722.644-1.753,2.037-5.722,1.989-7.133-.033-.981,2.4-2.63,4.665-3.951l.011,0c.423-.073.889-.165,1.4-.28,2.605-.595,2.4.194,6.168,1.315s10.326-.052,10.326-.052-6.817.467-11.9-1.386a10.964,10.964,0,0,0-3.137-.66c2.624-.918,5.3-1.716,7.954-2.524,1.069-.328,2.177-.6,3.243-.938a33.294,33.294,0,0,0,7.516-3.136,50.785,50.785,0,0,1,6.157-1.268c5.14-.734,18.757.133,21.894.667,1.589.27,5.616,2.07,9.2,3.78q1.451.892,2.819,1.921c1.736,1.275,3.334,2.444,5.63,2.29a6.978,6.978,0,0,0,.886-.1c6.59-.97,17.787-.914,25.594,2.2a2.855,2.855,0,0,1,.911.385,15.211,15.211,0,0,1,5.644,4.026,9.453,9.453,0,0,1,1.243,1.97,4.987,4.987,0,0,1,.658.854.217.217,0,0,0,.056-.091.223.223,0,0,0,0-.126" transform="translate(-75.908 -12.954)"/>
    <path id="Pfad_538" data-name="Pfad 538" d="M140.388,97.328a2.035,2.035,0,0,1,.079.492.912.912,0,0,1-1.048,1.016h-1.683q-.826,0-.889-.54l-.619-3.445q-.19-.667-.7-.667h-5.176a.538.538,0,0,0-.4.143,1.246,1.246,0,0,0-.222.524l-.666,3.445a.464.464,0,0,1-.254.4,1.07,1.07,0,0,1-.492.143h-1.588a.978.978,0,0,1-.571-.222.855.855,0,0,1-.318-.794,2.223,2.223,0,0,1,.1-.492l3.842-20.417a1.482,1.482,0,0,1,.619-.968,1.625,1.625,0,0,1,.889-.3h3.7a1.812,1.812,0,0,1,.842.174,1.221,1.221,0,0,1,.492.746Zm-5-6.986-1.89-10.51c-.1-.328-.26-.492-.492-.492s-.408.164-.492.492l-1.937,10.51v.144a.58.58,0,0,0,.175.428.545.545,0,0,0,.444.19h3.541q.651,0,.651-.762" transform="translate(-74.474 -44.764)" fill="#b51010"/>
    <path id="Pfad_539" data-name="Pfad 539" d="M176.171,108.679q-.056.467-.622.467h-1.667a.647.647,0,0,1-.245-.1.753.753,0,0,1-.345-.367l-4.045-6.557a1.207,1.207,0,0,1-.122-.467v-1.578q0-.523.556-.523h1.945a.97.97,0,0,0,.778-.4,1.413,1.413,0,0,0,.3-.811V95.41a.651.651,0,0,0-.122-.345.673.673,0,0,0-.311-.122h-3.334a.5.5,0,0,0-.344.155.8.8,0,0,0-.122.345v13.27a.409.409,0,0,1-.122.3.444.444,0,0,1-.345.133h-1.667a.409.409,0,0,1-.333-.133.54.54,0,0,1-.133-.3V93.4a.567.567,0,0,1,.133-.334.334.334,0,0,1,.3-.156h7.891a1.2,1.2,0,0,1,.956.367,1.5,1.5,0,0,1,.378,1.056v4.012a1.779,1.779,0,0,1-.589,1.244,14.99,14.99,0,0,1-1.7,1.167,9.883,9.883,0,0,0-1.112.689.347.347,0,0,0-.133.278.711.711,0,0,0,.189.434l3.8,6.09a.075.075,0,0,0,.067.056,1.329,1.329,0,0,1,.122.378" transform="translate(-98.16 -54.983)" fill="#b51010"/>
    <path id="Pfad_540" data-name="Pfad 540" d="M205.03,108.712a.491.491,0,0,1-.122.3.4.4,0,0,1-.311.133h-1.545a.465.465,0,0,1-.344-.133.439.439,0,0,1-.156-.3V98.61c0-.052-.048-.093-.145-.122a.267.267,0,0,0-.222.122l-1.789,3.767q-.1.312-.533.311a.475.475,0,0,1-.489-.311l-1.8-3.767a.239.239,0,0,0-.211-.122q-.156,0-.156.122v10.1a.389.389,0,0,1-.156.3.429.429,0,0,1-.333.133h-1.523a.41.41,0,0,1-.334-.133.54.54,0,0,1-.133-.3V93.4a.567.567,0,0,1,.133-.334.334.334,0,0,1,.3-.156h1.4a.636.636,0,0,1,.589.367l2.467,5.812a.221.221,0,0,0,.245.156c.156,0,.248-.052.278-.156l2.479-5.812a.607.607,0,0,1,.589-.367H204.6a.36.36,0,0,1,.311.156.561.561,0,0,1,.122.334Z" transform="translate(-115.238 -54.983)" fill="#b51010"/>
    <path id="Pfad_541" data-name="Pfad 541" d="M233.888,105.056a4.6,4.6,0,0,1-.4,1.889,4.279,4.279,0,0,1-1.145,1.356,6,6,0,0,1-1.667.812,8.13,8.13,0,0,1-1.978.244,10.373,10.373,0,0,1-2.112-.189,3.5,3.5,0,0,1-1.578-.611,2.651,2.651,0,0,1-1.045-1.267,5.084,5.084,0,0,1-.378-2.112.911.911,0,0,1,.133-.334.391.391,0,0,1,.3-.155h1.645a.421.421,0,0,1,.311.122,1.51,1.51,0,0,1,.122.345,1.58,1.58,0,0,0,.278.856,1.625,1.625,0,0,0,.623.533,2.263,2.263,0,0,0,.8.245,4.285,4.285,0,0,0,.9.067,9.332,9.332,0,0,0,.956-.033,4.722,4.722,0,0,0,.8-.222,1.381,1.381,0,0,0,.589-.489,1.4,1.4,0,0,0,.245-.834,1.973,1.973,0,0,0-.712-1.456,15.44,15.44,0,0,0-2.156-1.579q-1.167-.7-1.645-1.056a10.956,10.956,0,0,1-1.234-1.078,4.409,4.409,0,0,1-.933-1.39,3.79,3.79,0,0,1-.367-1.7,4.359,4.359,0,0,1,.367-1.856,3.938,3.938,0,0,1,1.056-1.3,4.842,4.842,0,0,1,1.578-.745,7.478,7.478,0,0,1,1.911-.211,7.878,7.878,0,0,1,1.767.178,3.716,3.716,0,0,1,1.423.622,2.884,2.884,0,0,1,.989,1.145,4.482,4.482,0,0,1,.344,1.789.576.576,0,0,1-.133.344.467.467,0,0,1-.333.156h-1.456a.5.5,0,0,1-.344-.156.42.42,0,0,1-.122-.311,1.531,1.531,0,0,0-.589-1.334,2.609,2.609,0,0,0-1.479-.4,3.33,3.33,0,0,0-1.645.433,1.464,1.464,0,0,0-.734,1.3,1.841,1.841,0,0,0,.711,1.456,13.622,13.622,0,0,0,2.157,1.578q.489.333.9.606t.745.505a8.868,8.868,0,0,1,1.233,1.078,5.12,5.12,0,0,1,.934,1.4,4.123,4.123,0,0,1,.367,1.756" transform="translate(-132.316 -54.983)" fill="#b51010"/>
    <path id="Pfad_542" data-name="Pfad 542" d="M262.747,95.066a.339.339,0,0,1-.122.278.452.452,0,0,1-.345.156h-3.089q-.467,0-.467.434V108.68a.407.407,0,0,1-.122.334.4.4,0,0,1-.311.133h-1.7a.407.407,0,0,1-.456-.467V95.933a.37.37,0,0,0-.156-.3.466.466,0,0,0-.345-.133h-2.723a.408.408,0,0,1-.467-.456v-1.7q0-.434.467-.433h9.346a.426.426,0,0,1,.333.122.422.422,0,0,1,.156.311Z" transform="translate(-149.394 -54.983)" fill="#b51010"/>
    <path id="Pfad_543" data-name="Pfad 543" d="M291.605,108.679q-.056.467-.622.467h-1.667a.646.646,0,0,1-.245-.1.753.753,0,0,1-.344-.367l-4.045-6.557a1.208,1.208,0,0,1-.122-.467v-1.578q0-.523.556-.523h1.945a.97.97,0,0,0,.778-.4,1.413,1.413,0,0,0,.3-.811V95.41a.651.651,0,0,0-.122-.345.673.673,0,0,0-.311-.122H284.37a.5.5,0,0,0-.344.155.8.8,0,0,0-.122.345v13.27a.409.409,0,0,1-.122.3.444.444,0,0,1-.345.133H281.77a.409.409,0,0,1-.333-.133.54.54,0,0,1-.133-.3V93.4a.567.567,0,0,1,.133-.334.334.334,0,0,1,.3-.156h7.891a1.2,1.2,0,0,1,.956.367,1.5,1.5,0,0,1,.378,1.056v4.012a1.779,1.779,0,0,1-.589,1.244,14.986,14.986,0,0,1-1.7,1.167,9.882,9.882,0,0,0-1.112.689.347.347,0,0,0-.133.278.711.711,0,0,0,.189.434l3.8,6.09a.075.075,0,0,0,.067.056,1.331,1.331,0,0,1,.122.378" transform="translate(-166.472 -54.983)" fill="#b51010"/>
    <path id="Pfad_544" data-name="Pfad 544" d="M320.463,101.812a24.863,24.863,0,0,1-.156,2.912,7.776,7.776,0,0,1-.678,2.345,3.731,3.731,0,0,1-1.578,1.667,5.507,5.507,0,0,1-2.779.623,5.418,5.418,0,0,1-2.756-.623,3.8,3.8,0,0,1-1.545-1.7,6.419,6.419,0,0,1-.656-2.289,27.582,27.582,0,0,1-.156-2.934,15.86,15.86,0,0,1,.345-3.189,11.438,11.438,0,0,1,.556-2,7.769,7.769,0,0,1,.956-1.833,4.687,4.687,0,0,1,1.4-1.356,3.286,3.286,0,0,1,1.856-.522,3.6,3.6,0,0,1,1.878.489,5.425,5.425,0,0,1,1.456,1.389,8.838,8.838,0,0,1,.956,1.833,12.575,12.575,0,0,1,.556,2,15,15,0,0,1,.345,3.189m-2.6.089q0-.923-.089-1.879a20.4,20.4,0,0,0-.345-2.167,5.074,5.074,0,0,0-.8-1.856,1.612,1.612,0,0,0-1.356-.778A1.575,1.575,0,0,0,313.94,96a5.657,5.657,0,0,0-.778,1.823,12.4,12.4,0,0,0-.3,2.167q-.1,1.023-.1,1.912,0,.589.017,1.067t.05.889a5.965,5.965,0,0,0,.311,1.445,2.342,2.342,0,0,0,.767,1.056,2.217,2.217,0,0,0,1.367.4,2.408,2.408,0,0,0,1.423-.4,2.57,2.57,0,0,0,.8-1.112,7.522,7.522,0,0,0,.311-1.456q.056-.867.056-1.889" transform="translate(-183.55 -54.983)" fill="#b51010"/>
    <path id="Pfad_545" data-name="Pfad 545" d="M349.322,94.51a.5.5,0,0,1-.122.311.4.4,0,0,1-.311.122H342.71a.909.909,0,0,0-.778.378,1.327,1.327,0,0,0-.311.889v4.212a.633.633,0,0,0,.122.334.446.446,0,0,0,.311.156h4.879a.453.453,0,0,1,.334.122.651.651,0,0,1,.122.345v1.456a.408.408,0,0,1-.456.467h-4.845a.408.408,0,0,0-.467.456v4.923a.412.412,0,0,1-.467.467h-1.667a.412.412,0,0,1-.467-.467V94.943a1.984,1.984,0,0,1,.622-1.445,2.783,2.783,0,0,1,1.978-.589h7.213a.428.428,0,0,1,.334.122.422.422,0,0,1,.156.311Z" transform="translate(-200.629 -54.983)" fill="#b51010"/>
    <path id="Pfad_546" data-name="Pfad 546" d="M378.181,94.51a.5.5,0,0,1-.122.311.4.4,0,0,1-.311.122h-6.179a.909.909,0,0,0-.778.378,1.327,1.327,0,0,0-.311.889v4.212a.633.633,0,0,0,.123.334.446.446,0,0,0,.311.156h4.879a.453.453,0,0,1,.334.122.652.652,0,0,1,.122.345v1.456a.408.408,0,0,1-.456.467h-4.845a.408.408,0,0,0-.467.456v4.923a.412.412,0,0,1-.467.467h-1.667a.412.412,0,0,1-.467-.467V94.943A1.984,1.984,0,0,1,368.5,93.5a2.783,2.783,0,0,1,1.978-.589h7.213a.428.428,0,0,1,.333.122.422.422,0,0,1,.156.311Z" transform="translate(-217.707 -54.983)" fill="#b51010"/>
    <path id="Pfad_547" data-name="Pfad 547" d="M172.993,73.888c0,.16-.084.239-.254.239h-6.652c-.16,0-.239-.087-.239-.262V72.193a.3.3,0,0,1,.023-.131c.061-.1.077-.138.046-.108l4.74-7.415a.3.3,0,0,0,.038-.108q0-.154-.146-.154h-4.44q-.262,0-.262-.231V63.12c0-.169.079-.254.239-.254h6.521c.159,0,.239.085.239.254v1.156a.2.2,0,0,1-.012.069.182.182,0,0,0-.011.061.822.822,0,0,1-.046.108l-4.756,7.546a.244.244,0,0,0-.023.108c0,.1.049.154.147.154h4.594c.17,0,.254.077.254.231Z" transform="translate(-98.147 -37.203)"/>
    <path id="Pfad_548" data-name="Pfad 548" d="M190.428,78.89a.237.237,0,0,1-.06.167.246.246,0,0,1-.151.076h-.723a.154.154,0,0,1-.146-.076.217.217,0,0,1-.075-.151v-.453a.053.053,0,0,0-.06-.06.149.149,0,0,0-.108.048,3.524,3.524,0,0,1-.826.583,2.256,2.256,0,0,1-.917.211,1.88,1.88,0,0,1-.841-.178,1.568,1.568,0,0,1-.567-.512,2.521,2.521,0,0,1-.318-.723,4.016,4.016,0,0,1-.086-.869V71.487a.208.208,0,0,1,.059-.162.167.167,0,0,1,.151-.076h.836a.147.147,0,0,1,.135.06.2.2,0,0,1,.076.151V76.91a.918.918,0,0,0,.286.718.946.946,0,0,0,.723.286,1.191,1.191,0,0,0,.976-.437,1.5,1.5,0,0,0,.372-1.047V71.461a.218.218,0,0,1,.076-.151.206.206,0,0,1,.167-.06h.809a.2.2,0,0,1,.211.211Z" transform="translate(-109.807 -42.165)"/>
    <path id="Pfad_549" data-name="Pfad 549" d="M204.51,78.5a.608.608,0,0,1-.178.448.678.678,0,0,1-.453.183h-4.144a.2.2,0,0,1-.162-.065.265.265,0,0,1-.065-.146V71.487a.278.278,0,0,1,.065-.162.163.163,0,0,1,.146-.076h.841a.194.194,0,0,1,.151.06.2.2,0,0,1,.06.151v6.167a.319.319,0,0,0,.059.167.244.244,0,0,0,.168.076h2.028a.336.336,0,0,0,.162-.059.282.282,0,0,0,.059-.151v-.8a.166.166,0,0,1,.06-.135.245.245,0,0,1,.167-.075h.809a.233.233,0,0,1,.167.075.188.188,0,0,1,.06.135Z" transform="translate(-118.067 -42.165)"/>
    <path id="Pfad_550" data-name="Pfad 550" d="M218.236,78.62a.686.686,0,0,1,.027.168.31.31,0,0,1-.356.345h-.572q-.28,0-.3-.184l-.21-1.171q-.065-.227-.238-.227h-1.759a.186.186,0,0,0-.136.048.431.431,0,0,0-.075.178l-.227,1.171a.156.156,0,0,1-.086.135.36.36,0,0,1-.167.049H213.6a.33.33,0,0,1-.194-.076.29.29,0,0,1-.108-.269.751.751,0,0,1,.032-.168l1.306-6.938a.5.5,0,0,1,.21-.329.555.555,0,0,1,.3-.1H216.4a.611.611,0,0,1,.286.06.411.411,0,0,1,.167.253Zm-1.7-2.374-.642-3.572c-.033-.111-.089-.167-.167-.167s-.138.056-.168.167l-.658,3.572v.049a.2.2,0,0,0,.06.146.187.187,0,0,0,.151.065h1.2q.221,0,.221-.259" transform="translate(-126.225 -42.165)"/>
    <path id="Pfad_551" data-name="Pfad 551" d="M232.226,77.147a2.237,2.237,0,0,1-.194.917,2.074,2.074,0,0,1-.556.658,2.9,2.9,0,0,1-.81.394,3.945,3.945,0,0,1-.961.119,5.1,5.1,0,0,1-1.025-.091,1.7,1.7,0,0,1-.766-.3,1.286,1.286,0,0,1-.507-.615,2.465,2.465,0,0,1-.184-1.025.443.443,0,0,1,.065-.162.191.191,0,0,1,.146-.076h.8a.2.2,0,0,1,.151.06.733.733,0,0,1,.059.167.769.769,0,0,0,.135.416.782.782,0,0,0,.3.259,1.107,1.107,0,0,0,.389.119,2.07,2.07,0,0,0,.437.033,4.541,4.541,0,0,0,.464-.016,2.337,2.337,0,0,0,.389-.108.665.665,0,0,0,.286-.238.681.681,0,0,0,.119-.4.961.961,0,0,0-.345-.707,7.494,7.494,0,0,0-1.047-.766q-.567-.34-.8-.513a5.372,5.372,0,0,1-.6-.523,2.127,2.127,0,0,1-.453-.674,1.844,1.844,0,0,1-.178-.826,2.124,2.124,0,0,1,.178-.9,1.91,1.91,0,0,1,.512-.631,2.37,2.37,0,0,1,.766-.361,3.642,3.642,0,0,1,.928-.1,3.774,3.774,0,0,1,.858.087,1.812,1.812,0,0,1,.691.3,1.4,1.4,0,0,1,.48.556,2.178,2.178,0,0,1,.167.869.28.28,0,0,1-.065.167.227.227,0,0,1-.162.076h-.707a.244.244,0,0,1-.167-.076.2.2,0,0,1-.06-.151.74.74,0,0,0-.286-.647,1.262,1.262,0,0,0-.718-.194,1.617,1.617,0,0,0-.8.211.709.709,0,0,0-.356.631.894.894,0,0,0,.345.707,6.649,6.649,0,0,0,1.047.766c.158.108.3.205.437.294s.254.17.361.245a4.308,4.308,0,0,1,.6.523,2.473,2.473,0,0,1,.453.68,2,2,0,0,1,.178.852" transform="translate(-134.469 -42.165)"/>
    <path id="Pfad_552" data-name="Pfad 552" d="M246.236,77.147a2.236,2.236,0,0,1-.194.917,2.074,2.074,0,0,1-.556.658,2.9,2.9,0,0,1-.809.394,3.945,3.945,0,0,1-.961.119,5.1,5.1,0,0,1-1.025-.091,1.7,1.7,0,0,1-.766-.3,1.286,1.286,0,0,1-.507-.615,2.465,2.465,0,0,1-.184-1.025.443.443,0,0,1,.065-.162.191.191,0,0,1,.146-.076h.8a.2.2,0,0,1,.151.06.734.734,0,0,1,.059.167.769.769,0,0,0,.135.416.782.782,0,0,0,.3.259,1.107,1.107,0,0,0,.389.119,2.07,2.07,0,0,0,.437.033,4.543,4.543,0,0,0,.464-.016,2.338,2.338,0,0,0,.389-.108.665.665,0,0,0,.286-.238.681.681,0,0,0,.119-.4.961.961,0,0,0-.345-.707,7.493,7.493,0,0,0-1.047-.766q-.567-.34-.8-.513a5.377,5.377,0,0,1-.6-.523,2.127,2.127,0,0,1-.453-.674,1.844,1.844,0,0,1-.178-.826,2.124,2.124,0,0,1,.178-.9,1.91,1.91,0,0,1,.512-.631,2.37,2.37,0,0,1,.766-.361,3.641,3.641,0,0,1,.928-.1,3.774,3.774,0,0,1,.858.087,1.812,1.812,0,0,1,.691.3,1.4,1.4,0,0,1,.48.556,2.179,2.179,0,0,1,.167.869.28.28,0,0,1-.065.167.228.228,0,0,1-.162.076H245.2a.244.244,0,0,1-.167-.076.2.2,0,0,1-.06-.151.74.74,0,0,0-.286-.647,1.262,1.262,0,0,0-.718-.194,1.617,1.617,0,0,0-.8.211.709.709,0,0,0-.356.631.894.894,0,0,0,.345.707,6.649,6.649,0,0,0,1.047.766c.158.108.3.205.437.294s.254.17.361.245a4.308,4.308,0,0,1,.6.523,2.473,2.473,0,0,1,.453.68,2,2,0,0,1,.178.852" transform="translate(-142.76 -42.165)"/>
    <path id="Pfad_553" data-name="Pfad 553" d="M260.282,78.89a.237.237,0,0,1-.06.167.245.245,0,0,1-.151.076h-.723a.154.154,0,0,1-.146-.076.216.216,0,0,1-.075-.151v-.453a.053.053,0,0,0-.06-.06.148.148,0,0,0-.107.048,3.535,3.535,0,0,1-.826.583,2.254,2.254,0,0,1-.917.211,1.878,1.878,0,0,1-.841-.178,1.565,1.565,0,0,1-.567-.512,2.523,2.523,0,0,1-.319-.723,4.044,4.044,0,0,1-.086-.869V71.487a.208.208,0,0,1,.059-.162.167.167,0,0,1,.151-.076h.836a.147.147,0,0,1,.135.06.2.2,0,0,1,.076.151V76.91a.918.918,0,0,0,.286.718.947.947,0,0,0,.723.286,1.191,1.191,0,0,0,.976-.437,1.5,1.5,0,0,0,.372-1.047V71.461a.22.22,0,0,1,.076-.151.206.206,0,0,1,.167-.06h.809a.2.2,0,0,1,.211.211Z" transform="translate(-151.146 -42.165)"/>
    <path id="Pfad_554" data-name="Pfad 554" d="M274.1,78.922a.238.238,0,0,1-.06.145.194.194,0,0,1-.151.065h-.734a.185.185,0,0,1-.151-.065.219.219,0,0,1-.059-.162.149.149,0,0,0-.016-.076.154.154,0,0,0-.016-.091l-2.417-4.263a.14.14,0,0,0-.119-.076c-.079,0-.119.025-.119.076v4.446a.2.2,0,0,1-.06.145.224.224,0,0,1-.167.065h-.707a.2.2,0,0,1-.162-.065.261.261,0,0,1-.065-.145V71.487a.275.275,0,0,1,.065-.162.162.162,0,0,1,.146-.076h.739a.2.2,0,0,1,.211.211.248.248,0,0,0,.016.086.311.311,0,0,0,.011.091L272.7,75.9a.153.153,0,0,0,.135.075c.072,0,.108-.025.108-.075V71.461A.2.2,0,0,1,273,71.31a.185.185,0,0,1,.151-.06h.717a.191.191,0,0,1,.167.076.272.272,0,0,1,.06.162Z" transform="translate(-159.249 -42.165)"/>
    <path id="Pfad_555" data-name="Pfad 555" d="M288.108,78.906a.256.256,0,0,1-.06.162.194.194,0,0,1-.151.065h-.507a.208.208,0,0,1-.183-.124A1.915,1.915,0,0,1,287,78.7c-.1-.2-.176-.3-.227-.3-.025,0-.045.016-.06.048a2.163,2.163,0,0,1-.75.6,2.356,2.356,0,0,1-.976.194,1.753,1.753,0,0,1-1.365-.572,2.007,2.007,0,0,1-.513-1.408V72.5a1.185,1.185,0,0,1,.378-.9,1.22,1.22,0,0,1,.885-.345h2.283a1.26,1.26,0,0,1,.809.253.922.922,0,0,1,.334.734v.615a.313.313,0,0,1-.059.167.248.248,0,0,1-.167.06h-.825a.2.2,0,0,1-.151-.06.224.224,0,0,1-.059-.167v-.389a.257.257,0,0,0-.076-.167.332.332,0,0,0-.167-.06h-1.23q-.469,0-.6.243a.422.422,0,0,0-.076.194c0,.032,0,.074-.008.124a1.544,1.544,0,0,0-.008.162V77.18a.651.651,0,0,0,.378.583,1.592,1.592,0,0,0,.75.211,2.372,2.372,0,0,0,.4-.043,1.754,1.754,0,0,0,.453-.151.943.943,0,0,0,.345-.238.5.5,0,0,0,.146-.361v-1.1a.264.264,0,0,0-.059-.151.209.209,0,0,0-.162-.06h-1.085a.227.227,0,0,1-.162-.075.3.3,0,0,1-.06-.167v-.556a.3.3,0,0,1,.06-.151.309.309,0,0,1,.162-.059h2.342a.2.2,0,0,1,.227.227Z" transform="translate(-167.539 -42.165)"/>
    <path id="Pfad_556" data-name="Pfad 556" d="M302.119,77.147a2.236,2.236,0,0,1-.194.917,2.074,2.074,0,0,1-.556.658,2.9,2.9,0,0,1-.809.394,3.945,3.945,0,0,1-.961.119,5.1,5.1,0,0,1-1.025-.091,1.7,1.7,0,0,1-.766-.3,1.286,1.286,0,0,1-.507-.615,2.466,2.466,0,0,1-.184-1.025.443.443,0,0,1,.065-.162.192.192,0,0,1,.146-.076h.8a.2.2,0,0,1,.151.06.735.735,0,0,1,.059.167.77.77,0,0,0,.135.416.782.782,0,0,0,.3.259,1.107,1.107,0,0,0,.389.119,2.071,2.071,0,0,0,.437.033,4.541,4.541,0,0,0,.464-.016,2.336,2.336,0,0,0,.389-.108.665.665,0,0,0,.286-.238.681.681,0,0,0,.119-.4.961.961,0,0,0-.345-.707,7.5,7.5,0,0,0-1.047-.766q-.567-.34-.8-.513a5.374,5.374,0,0,1-.6-.523,2.128,2.128,0,0,1-.453-.674,1.844,1.844,0,0,1-.178-.826,2.124,2.124,0,0,1,.178-.9,1.91,1.91,0,0,1,.512-.631,2.369,2.369,0,0,1,.766-.361,3.642,3.642,0,0,1,.928-.1,3.774,3.774,0,0,1,.858.087,1.812,1.812,0,0,1,.691.3,1.4,1.4,0,0,1,.48.556,2.179,2.179,0,0,1,.167.869.28.28,0,0,1-.065.167.227.227,0,0,1-.162.076h-.707a.245.245,0,0,1-.167-.076.2.2,0,0,1-.06-.151.74.74,0,0,0-.286-.647,1.262,1.262,0,0,0-.718-.194,1.617,1.617,0,0,0-.8.211.709.709,0,0,0-.356.631.894.894,0,0,0,.345.707,6.649,6.649,0,0,0,1.047.766c.158.108.3.205.437.294s.254.17.361.245a4.309,4.309,0,0,1,.6.523,2.472,2.472,0,0,1,.453.68,2,2,0,0,1,.178.852" transform="translate(-175.831 -42.165)"/>
    <path id="Pfad_557" data-name="Pfad 557" d="M315.864,77.18a1.835,1.835,0,0,1-.572,1.408,2.04,2.04,0,0,1-1.44.545H311.09a.226.226,0,0,1-.162-.076.314.314,0,0,1-.064-.151v-.782a.144.144,0,0,1,.064-.1.69.69,0,0,1,.194-.092.645.645,0,0,0,.21-.108.123.123,0,0,0,.06-.119V72.556a.186.186,0,0,0-.06-.135c-.025-.014-.056-.029-.091-.046s-.076-.037-.119-.062a.594.594,0,0,1-.194-.086.111.111,0,0,1-.064-.108v-.658a.269.269,0,0,1,.064-.151.177.177,0,0,1,.146-.059h3.022a1.6,1.6,0,0,1,1.273.539,2,2,0,0,1,.5,1.365Zm-1.263-.016V73.188a1.152,1.152,0,0,0-.211-.664.676.676,0,0,0-.566-.286h-.949a.2.2,0,0,0-.221.226v5.18a.2.2,0,0,0,.221.227h.949a.856.856,0,0,0,.556-.183.672.672,0,0,0,.221-.523" transform="translate(-183.966 -42.166)"/>
    <path id="Pfad_558" data-name="Pfad 558" d="M330.424,78.906a.254.254,0,0,1-.06.162.193.193,0,0,1-.151.065h-3.3a.2.2,0,0,1-.227-.227v-.858c0-.1.061-.151.183-.162l.987-.108c.061,0,.092-.025.092-.076V72.48a.139.139,0,0,0-.06-.108,1.009,1.009,0,0,0-.211-.1.947.947,0,0,1-.116-.062.843.843,0,0,0-.078-.046.137.137,0,0,1-.06-.1v-.6a.2.2,0,0,1,.076-.151.177.177,0,0,1,.145-.06h1.8a.216.216,0,0,1,.167.06.218.218,0,0,1,.076.151v.6a.164.164,0,0,1-.059.1.527.527,0,0,0-.084.046,1.178,1.178,0,0,1-.111.062,2.2,2.2,0,0,0-.2.1.125.125,0,0,0-.076.108V77.7a.067.067,0,0,0,.076.076l1.009.092c.118.018.178.077.178.178Z" transform="translate(-193.329 -42.165)"/>
    <path id="Pfad_559" data-name="Pfad 559" d="M342.789,78.906a.256.256,0,0,1-.06.162.194.194,0,0,1-.151.065h-4.565a.2.2,0,0,1-.227-.227V71.461c0-.14.076-.211.227-.211h4.219a.226.226,0,0,1,.167.06.218.218,0,0,1,.076.151v.566a.3.3,0,0,1-.059.151.229.229,0,0,1-.167.059h-2.973a.2.2,0,0,0-.227.227V73.8a.315.315,0,0,0,.059.162.228.228,0,0,0,.168.059H341.3a.228.228,0,0,1,.162.076.317.317,0,0,1,.059.167v.539a.2.2,0,0,1-.221.227h-2.028c-.151,0-.227.07-.227.21v2.385a.316.316,0,0,0,.059.167.244.244,0,0,0,.168.076h3.3a.2.2,0,0,1,.151.059.28.28,0,0,1,.06.167Z" transform="translate(-199.899 -42.165)"/>
    <path id="Pfad_560" data-name="Pfad 560" d="M356.534,78.922a.238.238,0,0,1-.06.145.194.194,0,0,1-.151.065h-.734a.185.185,0,0,1-.151-.065.219.219,0,0,1-.059-.162.15.15,0,0,0-.016-.076.154.154,0,0,0-.016-.091l-2.417-4.263a.14.14,0,0,0-.119-.076c-.079,0-.119.025-.119.076v4.446a.2.2,0,0,1-.06.145.224.224,0,0,1-.167.065h-.707a.2.2,0,0,1-.162-.065.261.261,0,0,1-.065-.145V71.487a.275.275,0,0,1,.065-.162.162.162,0,0,1,.146-.076h.739a.2.2,0,0,1,.211.211.249.249,0,0,0,.016.086.308.308,0,0,0,.011.091l2.417,4.263a.153.153,0,0,0,.135.075c.072,0,.108-.025.108-.075V71.461a.2.2,0,0,1,.059-.151.185.185,0,0,1,.151-.06h.717a.191.191,0,0,1,.167.076.272.272,0,0,1,.06.162Z" transform="translate(-208.033 -42.165)"/>
    <path id="Pfad_561" data-name="Pfad 561" d="M370.545,77.147a2.237,2.237,0,0,1-.194.917,2.075,2.075,0,0,1-.556.658,2.905,2.905,0,0,1-.809.394,3.946,3.946,0,0,1-.961.119A5.1,5.1,0,0,1,367,79.144a1.7,1.7,0,0,1-.766-.3,1.286,1.286,0,0,1-.507-.615,2.466,2.466,0,0,1-.184-1.025.443.443,0,0,1,.065-.162.191.191,0,0,1,.146-.076h.8a.2.2,0,0,1,.151.06.734.734,0,0,1,.059.167.769.769,0,0,0,.135.416.782.782,0,0,0,.3.259,1.107,1.107,0,0,0,.389.119,2.07,2.07,0,0,0,.437.033,4.542,4.542,0,0,0,.464-.016,2.337,2.337,0,0,0,.389-.108.665.665,0,0,0,.286-.238.681.681,0,0,0,.119-.4.961.961,0,0,0-.345-.707,7.5,7.5,0,0,0-1.047-.766q-.567-.34-.8-.513a5.375,5.375,0,0,1-.6-.523,2.127,2.127,0,0,1-.453-.674,1.844,1.844,0,0,1-.178-.826,2.124,2.124,0,0,1,.178-.9,1.91,1.91,0,0,1,.512-.631,2.37,2.37,0,0,1,.766-.361,3.641,3.641,0,0,1,.928-.1,3.773,3.773,0,0,1,.858.087,1.812,1.812,0,0,1,.691.3,1.4,1.4,0,0,1,.48.556,2.179,2.179,0,0,1,.167.869.28.28,0,0,1-.065.167.228.228,0,0,1-.162.076h-.707a.244.244,0,0,1-.167-.076.2.2,0,0,1-.06-.151.74.74,0,0,0-.286-.647,1.262,1.262,0,0,0-.718-.194,1.617,1.617,0,0,0-.8.211.709.709,0,0,0-.356.631.894.894,0,0,0,.345.707,6.648,6.648,0,0,0,1.047.766c.158.108.3.205.437.294s.253.17.361.245a4.311,4.311,0,0,1,.6.523,2.471,2.471,0,0,1,.453.68,2,2,0,0,1,.178.852" transform="translate(-216.325 -42.165)"/>
    <path id="Pfad_562" data-name="Pfad 562" d="M384.555,72.3a.164.164,0,0,1-.06.135.22.22,0,0,1-.167.076h-1.5q-.227,0-.227.21v6.188a.213.213,0,0,1-.211.227h-.825a.2.2,0,0,1-.221-.227V72.718a.179.179,0,0,0-.076-.145.225.225,0,0,0-.167-.064H379.78a.2.2,0,0,1-.227-.221v-.826c0-.14.076-.21.227-.21h4.537a.206.206,0,0,1,.162.059.2.2,0,0,1,.076.151Z" transform="translate(-224.616 -42.166)"/>
    <path id="Pfad_563" data-name="Pfad 563" d="M165.937,0H13.063A13.08,13.08,0,0,0,0,13.063v38.8A13.08,13.08,0,0,0,13.063,64.93H165.937A13.08,13.08,0,0,0,179,51.867v-38.8A13.08,13.08,0,0,0,165.937,0m9.8,50.275c0,6.609-5.646,11.989-12.585,11.989H15.851c-6.94,0-12.585-5.38-12.585-11.989V14.655c0-6.609,5.646-11.989,12.585-11.989h147.3c6.94,0,12.585,5.38,12.585,11.989Z"/>
  </g>
</svg>
